<svg xmlns="http://www.w3.org/2000/svg" width="53" height="52" fill="none" xmlns:v="https://vecta.io/nano"><path d="M.75 24c0-11.314 0-16.971 3.515-20.485S13.436 0 24.75 0h4c11.314 0 16.971 0 20.485 3.515S52.75 12.686 52.75 24v4c0 11.314 0 16.971-3.515 20.485S40.064 52 28.75 52h-4c-11.314 0-16.971 0-20.485-3.515S.75 39.314.75 28v-4z" fill="#2fd686"/><path d="M26.639 44.553c-1.487-.074-2.959-.33-4.383-.764l-.499-.172c-4.759-1.566-8.794-5.34-10.736-10.041a17.71 17.71 0 0 1-1.337-6.036c-.012-.236-.018-3.402-.019-8.611l.104-8.672c.238-.756.896-1.267 1.714-1.334.625-.051 1.04.131 2.382 1.039a64 64 0 0 1 2.668 1.915c.468.352.524.388.559.367l.52-.342a18.1 18.1 0 0 1 2.526-1.404 17.7 17.7 0 0 1 4.037-1.27c1-.192 2.015-.291 3.032-.297 1.694-.024 3.086.135 4.683.535 5.274 1.319 9.714 5.068 11.927 10.073.731 1.654 1.255 3.61 1.404 5.233l.079.908c.012.156.022.603.022.994 0 1.163-.096 2.333-.251 3.066a8.15 8.15 0 0 0-.068.386c-.083.562-.318 1.466-.593 2.281-.305.911-.545 1.484-1.016 2.426-.978 1.924-2.299 3.654-3.897 5.105-.654.588-1.232 1.047-1.872 1.49-.961.661-1.942 1.206-3.029 1.685-.892.394-2.139.801-3.122 1.019-.578.131-1.162.231-1.75.3a18.25 18.25 0 0 1-3.084.122zm-.906-8.796c.437-.089 1.007-.31 1.284-.501.214-.147.636-.559 3.066-2.991l2.621-2.604c.025 0 2.506-2.481 2.506-2.509s2.437-2.449 2.468-2.449c.015 0 .094-.07.175-.157.694-.735 1.013-1.422 1.064-2.298.039-.643-.089-1.351-.322-1.777a3.79 3.79 0 0 0-1.461-1.521c-.417-.242-.761-.346-1.319-.401-.455-.046-1.022 0-1.408.111-.361.104-.896.407-1.267.715-.062.052-1.9 1.879-4.083 4.061l-3.968 3.967-1.624-1.619-1.716-1.697c-.571-.447-1.264-.712-1.988-.758-.6-.019-1.352.134-1.818.371a4.3 4.3 0 0 0-.979.782c-.16.178-.426.53-.431.572s-.013.065-.097.238c-.202.423-.315.883-.333 1.352a2.99 2.99 0 0 0 .028.73c.067.524.357 1.16.758 1.657.074.094 1.441 1.474 3.037 3.067l3.081 3.029c.486.357 1.015.577 1.636.678.27.045.743.024 1.091-.045z" stroke="#fff" stroke-width="2.25"/></svg>