<svg width="50" height="50" viewBox="0 0 50 50" fill="none" xmlns="http://www.w3.org/2000/svg">
<path d="M2.0835 45.8335H47.9168" stroke="#292D32" stroke-width="3" stroke-miterlimit="10" stroke-linecap="round" stroke-linejoin="round"/>
<path d="M41.2085 45.8542V36.5625" stroke="#292D32" stroke-width="3" stroke-miterlimit="10" stroke-linecap="round" stroke-linejoin="round"/>
<path d="M41.2499 22.688C38.7082 22.688 36.6665 24.7297 36.6665 27.2713V32.0004C36.6665 34.5421 38.7082 36.5838 41.2499 36.5838C43.7915 36.5838 45.8332 34.5421 45.8332 32.0004V27.2713C45.8332 24.7297 43.7915 22.688 41.2499 22.688Z" stroke="#292D32" stroke-width="3" stroke-miterlimit="10" stroke-linecap="round" stroke-linejoin="round"/>
<path d="M4.375 12.5417C4.375 8.35421 6.45844 6.25 10.6043 6.25H23.5834C27.7292 6.25 29.7917 8.35421 29.7917 12.5417V45.8333" stroke="#292D32" stroke-width="3" stroke-miterlimit="10" stroke-linecap="round" stroke-linejoin="round"/>
<path d="M4.375 45.8334V20.8542" stroke="#292D32" stroke-width="3" stroke-miterlimit="10" stroke-linecap="round" stroke-linejoin="round"/>
<path d="M12.0835 17.1875H22.396" stroke="#292D32" stroke-width="3" stroke-miterlimit="10" stroke-linecap="round" stroke-linejoin="round"/>
<path d="M12.0835 25H22.396" stroke="#292D32" stroke-width="3" stroke-miterlimit="10" stroke-linecap="round" stroke-linejoin="round"/>
<path d="M17.1875 45.8335V38.021" stroke="#292D32" stroke-width="3" stroke-miterlimit="10" stroke-linecap="round" stroke-linejoin="round"/>
</svg>
