<svg xmlns="http://www.w3.org/2000/svg" width="50" height="50" fill="none" stroke="#292d32" stroke-width="3" stroke-miterlimit="10" xmlns:v="https://vecta.io/nano"><g stroke-linecap="round" stroke-linejoin="round"><path d="M2.084 45.834h45.833"/><path d="M41.209 45.854v-9.292"/></g><path d="M41.25 22.688a4.57 4.57 0 0 0-4.583 4.583V32a4.57 4.57 0 1 0 9.167 0v-4.729a4.57 4.57 0 0 0-4.583-4.583z" stroke-linejoin="round"/><path d="M4.375 12.542c0-4.187 2.083-6.292 6.229-6.292h12.979c4.146 0 6.208 2.104 6.208 6.292v33.292m-25.416-.001V20.854m7.709-3.666h10.313M12.084 25h10.313m-5.209 20.834v-7.812" stroke-linejoin="round" stroke-linecap="round"/></svg>