<svg xmlns="http://www.w3.org/2000/svg" width="24" height="24" fill="none" xmlns:v="https://vecta.io/nano"><path d="M9.39 6.01c.18.25.31.48.4.7a1.58 1.58 0 0 1 .14.61c0 .24-.07.48-.21.71-.13.23-.32.47-.56.71l-.76.79c-.11.11-.16.24-.16.4a.91.91 0 0 0 .03.23l.08.2c.18.33.49.76.93 1.28l1.45 1.58 1.59 1.47c.52.44.95.74 1.29.92l.18.08a.69.69 0 0 0 .25.04.55.55 0 0 0 .41-.17l.76-.75c.25-.25.49-.44.72-.56a1.33 1.33 0 0 1 .71-.21c.19 0 .39.04.61.13s.45.22.7.39l3.31 2.35c.26.18.44.39.55.64a2.05 2.05 0 0 1 .16.78c0 .36-.08.73-.25 1.09s-.39.7-.68 1.02c-.49.54-1.03.93-1.64 1.18a5.02 5.02 0 0 1-1.95.38c-1.02 0-2.11-.24-3.26-.73s-2.3-1.15-3.44-1.98a28.75 28.75 0 0 1-3.28-2.8c-1.03-1.04-1.96-2.13-2.79-3.27-.82-1.14-1.48-2.28-1.96-3.41C2.24 8.67 2 7.58 2 6.54c0-.68.12-1.33.36-1.93.24-.61.62-1.17 1.15-1.67C4.15 2.31 4.85 2 5.59 2a1.88 1.88 0 0 1 .81.18 1.63 1.63 0 0 1 .67.56" stroke="#00234e" stroke-width="1.5" stroke-miterlimit="10" stroke-linecap="round" stroke-linejoin="round"/></svg>