<svg xmlns="http://www.w3.org/2000/svg" width="121" height="121" fill="none" xmlns:v="https://vecta.io/nano"><rect width="121" height="121" rx="35" fill="#f1f7ff"/><g stroke="#2f73ee" stroke-width="5" stroke-linejoin="round"><path d="M69.5 29.833L60.292 36l13.333 19.917 23.583-15.792c2.375-1.583 3-4.833 1.417-7.167l-7.583-11.292c-1.583-2.375-4.833-3-7.167-1.417" stroke-linecap="round"/><path d="M61.725 37.997L41.818 51.33l10.666 15.926 19.907-13.333-10.666-15.926zM35.292 77.25l16.458-11-9.333-13.917-16.458 11c-1.917 1.292-2.417 3.875-1.125 5.792l4.708 7c1.25 1.875 3.833 2.375 5.75 1.125z"/><g stroke-linecap="round"><path d="M61.209 61.833L42.5 102.666"/><path d="M61 61.833l18.5 40.833"/></g></g></svg>