<svg width="121" height="121" viewBox="0 0 121 121" fill="none" xmlns="http://www.w3.org/2000/svg">
<rect width="121" height="121" rx="35" fill="#DEFFEE"/>
<path d="M61.6245 79.75V88.5" stroke="#2FD686" stroke-width="5" stroke-linecap="round" stroke-linejoin="round"/>
<path d="M40.7913 102.667H82.4579V98.5C82.4579 93.9166 78.7079 90.1666 74.1246 90.1666H49.1246C44.5413 90.1666 40.7913 93.9166 40.7913 98.5V102.667V102.667Z" stroke="#2FD686" stroke-width="5" stroke-miterlimit="10"/>
<path d="M36.6245 102.667H86.6245" stroke="#2FD686" stroke-width="5" stroke-linecap="round" stroke-linejoin="round"/>
<path d="M46.4583 73.7917C37.7083 68.75 31.8333 59.3334 31.8333 48.5V36C31.8333 26.7917 39.2916 19.3334 48.4999 19.3334H73.4999C82.7083 19.3334 90.1666 26.7917 90.1666 36V48.5C90.1666 64.4167 77.4582 77.3334 61.6249 77.6667C61.4166 77.6667 60.9999 77.6667 60.9999 77.6667" stroke="#2FD686" stroke-width="5" stroke-linecap="round" stroke-linejoin="round"/>
<path d="M33.7919 59.5415C30.6669 58.5415 27.9169 56.7082 25.7502 54.5415C22.0002 50.3749 19.5002 45.3749 19.5002 39.5415C19.5002 33.7082 24.0836 29.1249 29.9169 29.1249H32.6252C31.7919 31.0415 31.3752 33.1665 31.3752 35.3749V47.8749C31.3752 52.0415 32.2502 55.9582 33.7919 59.5415Z" stroke="#2FD686" stroke-width="5" stroke-linecap="round" stroke-linejoin="round"/>
<path d="M88.2085 59.5415C91.3335 58.5415 94.0835 56.7082 96.2502 54.5415C100 50.3749 102.5 45.3749 102.5 39.5415C102.5 33.7082 97.9168 29.1249 92.0835 29.1249H89.3752C90.2085 31.0415 90.6252 33.1665 90.6252 35.3749V47.8749C90.6252 52.0415 89.7502 55.9582 88.2085 59.5415Z" stroke="#2FD686" stroke-width="5" stroke-linecap="round" stroke-linejoin="round"/>
</svg>
