<svg xmlns="http://www.w3.org/2000/svg" width="121" height="121" fill="none" xmlns:v="https://vecta.io/nano"><rect width="121" height="121" rx="35" fill="#deffee"/><g stroke="#2fd686" stroke-width="5"><path d="M61.625 79.75v8.75" stroke-linecap="round" stroke-linejoin="round"/><path d="M40.791 102.667h41.667V98.5a8.36 8.36 0 0 0-8.333-8.333h-25a8.36 8.36 0 0 0-8.333 8.333v4.167h0z" stroke-miterlimit="10"/><path d="M36.625 102.667h50M46.458 73.792C37.708 68.75 31.833 59.333 31.833 48.5V36c0-9.208 7.458-16.667 16.667-16.667h25c9.208 0 16.667 7.458 16.667 16.667v12.5c0 15.917-12.708 28.833-28.542 29.167H61" stroke-linecap="round" stroke-linejoin="round"/><path d="M33.792 59.542c-3.125-1-5.875-2.833-8.042-5-3.75-4.167-6.25-9.167-6.25-15s4.583-10.417 10.417-10.417h2.708c-.833 1.917-1.25 4.042-1.25 6.25v12.5a29.36 29.36 0 0 0 2.417 11.667zm54.417 0c3.125-1 5.875-2.833 8.042-5 3.75-4.167 6.25-9.167 6.25-15s-4.583-10.417-10.416-10.417h-2.708c.833 1.917 1.25 4.042 1.25 6.25v12.5a29.36 29.36 0 0 1-2.417 11.667z" stroke-linejoin="round"/></g></svg>