<svg xmlns="http://www.w3.org/2000/svg" width="50" height="50" fill="none" stroke="#292d32" stroke-width="3" stroke-linecap="round" stroke-linejoin="round" xmlns:v="https://vecta.io/nano"><path d="M41.875 11.855c3.25-2.333 4.813-1.146 3.479 2.625l-8.417 23.563c-.292.833-1.271 1.521-2.146 1.521H15.209c-.875 0-1.854-.687-2.146-1.521L4.438 13.896c-1.229-3.458.208-4.521 3.167-2.396l8.125 5.813c1.354.938 2.896.458 3.479-1.062l3.667-9.771c1.167-3.125 3.104-3.125 4.271 0l3.667 9.771c.583 1.521 2.125 2 3.458 1.063l1.313-.937M13.542 45.834h22.917M19.792 29.167h10.417"/></svg>