<svg xmlns="http://www.w3.org/2000/svg" width="121" height="121" fill="none" xmlns:v="https://vecta.io/nano"><rect width="121" height="121" rx="35" fill="#fff2f8"/><g stroke="#ff007a" stroke-width="5" stroke-linecap="round" stroke-linejoin="round"><path d="M34.458 65.5l-.042 19.542c0 5.292 4.083 10.958 9.083 12.625l13.292 4.417c2.292.75 6.083.75 8.417 0L78.5 97.666c5-1.667 9.083-7.333 9.083-12.625V65.708M36 32.541l-8.208 5.375c-8.042 5.25-8.042 17 0 22.25l25.083 16.375c4.5 2.958 11.917 2.958 16.417 0L94.25 60.166c8-5.25 8-16.958 0-22.208L69.292 21.583c-4.5-2.958-11.917-2.958-16.417 0"/><path d="M100.167 73.5v-25"/></g></svg>