<svg width="52" height="52" viewBox="0 0 52 52" fill="none" xmlns="http://www.w3.org/2000/svg">
<rect width="52" height="52" rx="10" fill="url(#paint0_radial_212_26)"/>
<rect width="52" height="52" rx="10" fill="url(#paint1_radial_212_26)"/>
<path d="M26.5018 7C21.2059 7 20.5413 7.02316 18.4612 7.11781C16.3853 7.21288 14.9683 7.54153 13.7284 8.02375C12.4458 8.52181 11.3579 9.18806 10.274 10.2723C9.1893 11.3562 8.52305 12.4442 8.02335 13.7263C7.53991 14.9666 7.21085 16.384 7.11741 18.4591C7.02438 20.5391 7 21.2041 7 26.5C7 31.7959 7.02356 32.4585 7.11781 34.5385C7.21328 36.6144 7.54194 38.0314 8.02376 39.2713C8.52223 40.5538 9.18849 41.6418 10.2728 42.7256C11.3563 43.8103 12.4442 44.4782 13.7259 44.9763C14.9666 45.4585 16.3841 45.7871 18.4596 45.8822C20.5396 45.9768 21.2039 46 26.4994 46C31.7957 46 32.4583 45.9768 34.5384 45.8822C36.6143 45.7871 38.0329 45.4585 39.2736 44.9763C40.5558 44.4782 41.6421 43.8103 42.7256 42.7256C43.8103 41.6418 44.4765 40.5538 44.9762 39.2717C45.4556 38.0314 45.7847 36.614 45.8822 34.5389C45.9756 32.4589 46 31.7959 46 26.5C46 21.2041 45.9756 20.5395 45.8822 18.4595C45.7847 16.3836 45.4556 14.9666 44.9762 13.7267C44.4765 12.4442 43.8103 11.3562 42.7256 10.2723C41.6409 9.18766 40.5562 8.52141 39.2724 8.02375C38.0293 7.54153 36.6115 7.21288 34.5355 7.11781C32.4555 7.02316 31.7933 7 26.4957 7H26.5018ZM24.7525 10.5141C25.2717 10.5132 25.851 10.5141 26.5018 10.5141C31.7084 10.5141 32.3255 10.5328 34.3815 10.6262C36.2828 10.7131 37.3147 11.0308 38.0021 11.2977C38.9121 11.6512 39.5609 12.0737 40.243 12.7562C40.9255 13.4387 41.348 14.0887 41.7022 14.9987C41.9691 15.6852 42.2872 16.7171 42.3738 18.6183C42.4672 20.674 42.4875 21.2915 42.4875 26.4955C42.4875 31.6996 42.4672 32.3171 42.3738 34.3727C42.2868 36.274 41.9691 37.3058 41.7022 37.9924C41.3488 38.9024 40.9255 39.5504 40.243 40.2325C39.5605 40.915 38.9125 41.3375 38.0021 41.6909C37.3155 41.959 36.2828 42.2759 34.3815 42.3628C32.3259 42.4563 31.7084 42.4766 26.5018 42.4766C21.2949 42.4766 20.6778 42.4563 18.6221 42.3628C16.7209 42.2751 15.689 41.9574 15.0012 41.6905C14.0912 41.3371 13.4412 40.9146 12.7587 40.2321C12.0761 39.5496 11.6536 38.9012 11.2994 37.9908C11.0325 37.3042 10.7144 36.2723 10.6279 34.3711C10.5344 32.3155 10.5157 31.698 10.5157 26.4907C10.5157 21.2833 10.5344 20.6691 10.6279 18.6135C10.7148 16.7122 11.0325 15.6803 11.2994 14.993C11.6528 14.083 12.0761 13.433 12.7587 12.7505C13.4412 12.068 14.0912 11.6455 15.0012 11.2912C15.6886 11.0231 16.7209 10.7062 18.6221 10.6189C20.421 10.5376 21.1181 10.5133 24.7525 10.5092V10.5141ZM36.9109 13.7519C35.619 13.7519 34.5708 14.7988 34.5708 16.0911C34.5708 17.3829 35.619 18.4311 36.9109 18.4311C38.2028 18.4311 39.2509 17.3829 39.2509 16.0911C39.2509 14.7992 38.2028 13.7511 36.9109 13.7511V13.7519ZM26.5018 16.4859C20.9715 16.4859 16.4877 20.9697 16.4877 26.5C16.4877 32.0303 20.9715 36.512 26.5018 36.512C32.0322 36.512 36.5144 32.0303 36.5144 26.5C36.5144 20.9697 32.0322 16.4859 26.5018 16.4859ZM26.5018 20C30.0915 20 33.0019 22.91 33.0019 26.5C33.0019 30.0896 30.0915 33 26.5018 33C22.9118 33 20.0018 30.0896 20.0018 26.5C20.0018 22.91 22.9118 20 26.5018 20Z" fill="white"/>
<defs>
<radialGradient id="paint0_radial_212_26" cx="0" cy="0" r="1" gradientUnits="userSpaceOnUse" gradientTransform="translate(13.8126 56.0051) rotate(-90) scale(51.5358 47.9324)">
<stop stop-color="#FFDD55"/>
<stop offset="0.1" stop-color="#FFDD55"/>
<stop offset="0.5" stop-color="#FF543E"/>
<stop offset="1" stop-color="#C837AB"/>
</radialGradient>
<radialGradient id="paint1_radial_212_26" cx="0" cy="0" r="1" gradientUnits="userSpaceOnUse" gradientTransform="translate(-8.71027 3.74599) rotate(78.6806) scale(23.0367 94.9584)">
<stop stop-color="#3771C8"/>
<stop offset="0.128" stop-color="#3771C8"/>
<stop offset="1" stop-color="#6600FF" stop-opacity="0"/>
</radialGradient>
</defs>
</svg>
