<svg width="50" height="50" viewBox="0 0 50 50" fill="none" xmlns="http://www.w3.org/2000/svg">
<path d="M45.8334 24.9999V27.0207C45.8334 35.354 41.6668 39.5207 33.3334 39.5207H32.2918C31.6459 39.5207 31.0209 39.8332 30.6251 40.3541L27.5001 44.5207C26.1251 46.3541 23.8751 46.3541 22.5001 44.5207L19.3751 40.3541C19.0209 39.8957 18.2709 39.5207 17.7084 39.5207H16.6667C8.33342 39.5207 4.16675 37.4373 4.16675 27.0207V16.604C4.16675 8.27067 8.33342 4.104 16.6667 4.104H33.3334C41.6668 4.104 45.8334 8.27067 45.8334 16.604" stroke="#292D32" stroke-width="3" stroke-miterlimit="10" stroke-linecap="round" stroke-linejoin="round"/>
<path d="M16.6667 18.125L12.5 22.2917L16.6667 26.4583" stroke="#292D32" stroke-width="3" stroke-miterlimit="10" stroke-linecap="round" stroke-linejoin="round"/>
<path d="M33.3333 18.125L37.4999 22.2917L33.3333 26.4583" stroke="#292D32" stroke-width="3" stroke-miterlimit="10" stroke-linecap="round" stroke-linejoin="round"/>
<path d="M27.0834 17.4377L22.9167 27.1461" stroke="#292D32" stroke-width="3" stroke-miterlimit="10" stroke-linecap="round" stroke-linejoin="round"/>
</svg>
