<svg width="121" height="121" viewBox="0 0 121 121" fill="none" xmlns="http://www.w3.org/2000/svg">
<rect width="121" height="121" rx="35" fill="#FFF7E3"/>
<path d="M46.1249 69.3334H26.6666C22.0833 69.3334 18.3333 73.0834 18.3333 77.6667V102.667H46.1249V69.3334Z" stroke="#FFB820" stroke-width="5" stroke-miterlimit="10" stroke-linecap="round" stroke-linejoin="round"/>
<path d="M73.8752 61C73.8752 56.4166 70.1252 52.6666 65.5418 52.6666H54.4168C49.8335 52.6666 46.0835 56.4166 46.0835 61V102.667H73.8752V77.6666" stroke="#FFB820" stroke-width="5" stroke-miterlimit="10" stroke-linecap="round" stroke-linejoin="round"/>
<path d="M93.3331 81.8334H73.8748V102.667H101.666V90.1667C101.666 85.5834 97.9164 81.8334 93.3331 81.8334Z" stroke="#FFB820" stroke-width="5" stroke-miterlimit="10" stroke-linecap="round" stroke-linejoin="round"/>
<path d="M62.1666 19.6254L64.375 24.042C64.6666 24.667 65.4583 25.2503 66.125 25.3337L70.125 26.0004C72.6666 26.417 73.2916 28.2919 71.4583 30.0836L68.3333 33.2086C67.7916 33.7503 67.5 34.7503 67.6666 35.4586L68.5416 39.292C69.25 42.3337 67.625 43.5004 64.9583 41.9171L61.2083 39.7087C60.5417 39.2921 59.4166 39.2921 58.75 39.7087L55 41.9171C52.3333 43.5004 50.7083 42.3337 51.4166 39.292L52.2917 35.4586C52.4583 34.7503 52.1667 33.7086 51.625 33.2086L48.5416 30.1253C46.7083 28.292 47.2916 26.4586 49.875 26.0419L53.875 25.3754C54.5416 25.2504 55.3333 24.6671 55.625 24.0837L57.8333 19.6669C59.0416 17.2503 60.9583 17.2504 62.1666 19.6254Z" stroke="#FFB820" stroke-width="5" stroke-linecap="round" stroke-linejoin="round"/>
</svg>
