<svg xmlns="http://www.w3.org/2000/svg" width="50" height="50" fill="none" stroke="#292d32" stroke-width="3" xmlns:v="https://vecta.io/nano"><g stroke-miterlimit="10"><g stroke-linecap="round" stroke-linejoin="round"><path d="M16.667 4.167v6.25m16.667-6.25v6.25"/><path d="M6.25 17.708c0-6.25 3.125-10.417 10.417-10.417h16.667c7.292 0 10.417 4.167 10.417 10.417v10.688c-1.854-1.479-4.208-2.354-6.771-2.354a10.84 10.84 0 0 0-6.833 2.417c-2.521 1.979-4.104 5.083-4.104 8.521 0 2.042.583 4 1.583 5.625a10.97 10.97 0 0 0 2.958 3.229H16.667c-7.292 0-10.417-4.167-10.417-10.417v-9.229"/><path d="M14.584 22.917h12.5m-12.5 10.417h5.458"/></g><path d="M47.917 36.979c0 2.042-.583 4-1.583 5.625-.583 1-1.312 1.875-2.167 2.583a10.72 10.72 0 0 1-7.187 2.729c-2.396 0-4.604-.771-6.396-2.083-1.187-.854-2.187-1.958-2.958-3.229-1-1.625-1.583-3.583-1.583-5.625 0-3.437 1.583-6.542 4.104-8.521a10.84 10.84 0 0 1 6.833-2.417 10.81 10.81 0 0 1 6.771 2.354c2.542 2 4.167 5.104 4.167 8.583z" stroke-linejoin="round"/></g><path d="M36.979 42.188a5.21 5.21 0 0 1 5.208-5.208 5.21 5.21 0 0 1-5.208-5.208 5.21 5.21 0 0 1-5.208 5.208 5.21 5.21 0 0 1 5.208 5.208z" stroke-linejoin="round"/></svg>