<svg xmlns="http://www.w3.org/2000/svg" width="50" height="50" fill="none" stroke="#292d32" stroke-width="3" stroke-linejoin="round" xmlns:v="https://vecta.io/nano"><path d="M22.396 46.875h5.25c2 0 3.292-1.417 2.917-3.146l-.854-3.771h-9.375l-.854 3.771c-.375 1.625 1.042 3.146 2.917 3.146z"/><path d="M29.625 26.396l-2.187-2.771c-1.333-1.687-3.521-1.687-4.854 0l-6.354 8.062c-1.604 2.021-1.604 3.334.5 5.063l3.604 3.208m9.374-.021l3.604-3.208c2.021-1.792 2.104-3.042.5-5.063m-8.791-8.499v5.271" stroke-linecap="round"/><path d="M26.083 10.417H24a2.09 2.09 0 0 1-2.083-2.083V6.25A2.09 2.09 0 0 1 24 4.167h2.083a2.09 2.09 0 0 1 2.083 2.083v2.083a2.09 2.09 0 0 1-2.083 2.083zM6.813 29.521h2.083a2.09 2.09 0 0 0 2.083-2.083v-2.083a2.09 2.09 0 0 0-2.083-2.083H6.813a2.09 2.09 0 0 0-2.083 2.083v2.083a2.09 2.09 0 0 0 2.083 2.083zm36.374 0h-2.083a2.09 2.09 0 0 1-2.083-2.083v-2.083a2.09 2.09 0 0 1 2.083-2.083h2.083a2.09 2.09 0 0 1 2.083 2.083v2.083a2.09 2.09 0 0 1-2.083 2.083z"/><path d="M7.813 23.271a15.9 15.9 0 0 1 4.083-10.667m10.02-5.187c-1.333.167-2.625.479-3.854.938m24.126 14.916c0-8.167-6.125-14.875-14.021-15.854" stroke-linecap="round"/></svg>