<svg xmlns="http://www.w3.org/2000/svg" width="50" height="50" fill="none" stroke="#292d32" stroke-width="3" stroke-linejoin="round" xmlns:v="https://vecta.io/nano"><path d="M37.5 14.917c-.125-.021-.271-.021-.396 0-2.875-.104-5.167-2.458-5.167-5.375a5.36 5.36 0 0 1 5.375-5.375c2.979 0 5.375 2.417 5.375 5.375-.021 2.917-2.312 5.271-5.187 5.375z"/><path d="M35.354 30.083c2.854.479 6-.021 8.208-1.5 2.938-1.958 2.938-5.167 0-7.125-2.229-1.479-5.417-1.979-8.271-1.479" stroke-linecap="round"/><path d="M12.438 14.917c.125-.021.271-.021.396 0 2.875-.104 5.167-2.458 5.167-5.375a5.36 5.36 0 0 0-5.375-5.375c-2.979 0-5.375 2.417-5.375 5.375.021 2.917 2.312 5.271 5.188 5.375z"/><path d="M14.584 30.083c-2.854.479-6-.021-8.208-1.5-2.937-1.958-2.937-5.167 0-7.125 2.229-1.479 5.417-1.979 8.271-1.479" stroke-linecap="round"/><path d="M25 30.479c-.125-.021-.271-.021-.396 0-2.875-.104-5.167-2.458-5.167-5.375a5.36 5.36 0 0 1 5.375-5.375c2.979 0 5.375 2.417 5.375 5.375-.021 2.917-2.312 5.292-5.187 5.375z"/><path d="M31.063 37.041c-3.312-2.208-8.792-2.208-12.125 0-2.937 1.958-2.937 5.167 0 7.125 3.333 2.229 8.792 2.229 12.125 0" stroke-linecap="round"/></svg>