<svg width="50" height="50" viewBox="0 0 50 50" fill="none" xmlns="http://www.w3.org/2000/svg">
<path d="M37.5 14.9165C37.375 14.8957 37.2292 14.8957 37.1042 14.9165C34.2292 14.8123 31.9375 12.4582 31.9375 9.54151C31.9375 6.56234 34.3333 4.1665 37.3125 4.1665C40.2917 4.1665 42.6875 6.58317 42.6875 9.54151C42.6667 12.4582 40.375 14.8123 37.5 14.9165Z" stroke="#292D32" stroke-width="3" stroke-linecap="round" stroke-linejoin="round"/>
<path d="M35.3543 30.0833C38.2084 30.5624 41.3543 30.0624 43.5626 28.5833C46.5001 26.6249 46.5001 23.4166 43.5626 21.4583C41.3334 19.9791 38.1459 19.4791 35.2917 19.9791" stroke="#292D32" stroke-width="3" stroke-linecap="round" stroke-linejoin="round"/>
<path d="M12.438 14.9165C12.563 14.8957 12.7088 14.8957 12.8338 14.9165C15.7088 14.8123 18.0005 12.4582 18.0005 9.54151C18.0005 6.56234 15.6047 4.1665 12.6255 4.1665C9.64633 4.1665 7.25049 6.58317 7.25049 9.54151C7.27132 12.4582 9.56299 14.8123 12.438 14.9165Z" stroke="#292D32" stroke-width="3" stroke-linecap="round" stroke-linejoin="round"/>
<path d="M14.5836 30.0833C11.7294 30.5624 8.58358 30.0624 6.37524 28.5833C3.43774 26.6249 3.43774 23.4166 6.37524 21.4583C8.60441 19.9791 11.7919 19.4791 14.6461 19.9791" stroke="#292D32" stroke-width="3" stroke-linecap="round" stroke-linejoin="round"/>
<path d="M25 30.479C24.875 30.4582 24.7292 30.4582 24.6042 30.479C21.7292 30.3748 19.4375 28.0207 19.4375 25.104C19.4375 22.1248 21.8333 19.729 24.8125 19.729C27.7917 19.729 30.1875 22.1457 30.1875 25.104C30.1667 28.0207 27.875 30.3957 25 30.479Z" stroke="#292D32" stroke-width="3" stroke-linecap="round" stroke-linejoin="round"/>
<path d="M31.0625 37.041C27.75 34.8327 22.2708 34.8327 18.9375 37.041C16 38.9993 16 42.2077 18.9375 44.166C22.2708 46.3952 27.7292 46.3952 31.0625 44.166" stroke="#292D32" stroke-width="3" stroke-linecap="round" stroke-linejoin="round"/>
</svg>
