<svg width="53" height="52" viewBox="0 0 53 52" fill="none" xmlns="http://www.w3.org/2000/svg">
<path d="M0.25 24C0.25 12.6863 0.25 7.02944 3.76472 3.51472C7.27944 0 12.9363 0 24.25 0H28.25C39.5637 0 45.2206 0 48.7353 3.51472C52.25 7.02944 52.25 12.6863 52.25 24V28C52.25 39.3137 52.25 44.9706 48.7353 48.4853C45.2206 52 39.5637 52 28.25 52H24.25C12.9363 52 7.27944 52 3.76472 48.4853C0.25 44.9706 0.25 39.3137 0.25 28V24Z" fill="#2F73EE"/>
<path d="M33.3199 9.66265C40.9686 7.11362 45.1242 11.2884 42.5947 18.9355L36.9133 35.9758C33.099 47.4363 26.8355 47.4363 23.0212 35.9758L21.3349 30.9179L16.2759 29.2319C4.81283 25.4184 4.81283 19.1763 16.2759 15.3428L25.5105 12.2719" stroke="white" stroke-width="2.25" stroke-linecap="round" stroke-linejoin="round"/>
<path d="M21.7161 30.0551L28.903 22.8496" stroke="white" stroke-width="2.25" stroke-linecap="round" stroke-linejoin="round"/>
</svg>
