<svg xmlns="http://www.w3.org/2000/svg" width="53" height="52" fill="none" xmlns:v="https://vecta.io/nano"><g clip-path="url(#A)"><path d="M.25 24c0-11.314 0-16.971 3.515-20.485S12.936 0 24.25 0h4c11.314 0 16.971 0 20.485 3.515S52.25 12.686 52.25 24v4c0 11.314 0 16.971-3.515 20.485S39.564 52 28.25 52h-4c-11.314 0-16.971 0-20.485-3.515S.25 39.314.25 28v-4z" fill="#36a6de"/><path d="M11.739 24.447l16.898-7.12 7.322-3.115s2.61-1.038 2.392 1.483c-.072 1.038-.652 4.673-1.233 8.609l-1.812 11.65s-.145 1.706-1.377 2.003-3.262-1.038-3.625-1.335l-7.322-5.192c-.508-.445-1.088-1.335.072-2.373a279.76 279.76 0 0 0 7.612-7.417c.87-.89 1.74-2.967-1.885-.445L18.553 28.23s-1.16.742-3.335.074-4.712-1.558-4.712-1.558-1.74-1.113 1.233-2.299z" fill="#fff"/></g><defs><clipPath id="A"><path fill="#fff" d="M0 0h53v52H0z"/></clipPath></defs></svg>