<svg xmlns="http://www.w3.org/2000/svg" width="50" height="50" fill="none" stroke="#292d32" stroke-width="3" stroke-linejoin="round" xmlns:v="https://vecta.io/nano"><path d="M21.729 5.042a6.59 6.59 0 0 1 6.563 0l12.375 7.146c2.021 1.167 3.271 3.333 3.271 5.688v14.25c0 2.333-1.25 4.5-3.271 5.688l-12.375 7.146a6.59 6.59 0 0 1-6.562 0L9.354 37.813c-2.021-1.167-3.271-3.334-3.271-5.688v-14.25c0-2.333 1.25-4.5 3.271-5.688l3.958-2.292" stroke-linecap="round"/><path d="M25 22.917c2.681 0 4.854-2.173 4.854-4.854S27.681 13.209 25 13.209s-4.854 2.173-4.854 4.854 2.173 4.854 4.854 4.854z"/><path d="M33.333 34.708c0-3.75-3.729-6.792-8.333-6.792s-8.333 3.042-8.333 6.792" stroke-linecap="round"/></svg>