<svg width="53" height="52" viewBox="0 0 53 52" fill="none" xmlns="http://www.w3.org/2000/svg">
<path d="M1 24C1 12.6863 1 7.02944 4.51472 3.51472C8.02944 0 13.6863 0 25 0H29C40.3137 0 45.9706 0 49.4853 3.51472C53 7.02944 53 12.6863 53 24V28C53 39.3137 53 44.9706 49.4853 48.4853C45.9706 52 40.3137 52 29 52H25C13.6863 52 8.02944 52 4.51472 48.4853C1 44.9706 1 39.3137 1 28V24Z" fill="#2FD686"/>
<path d="M10 44L12.4719 35.0123C10.9466 32.3815 10.1451 29.3992 10.1465 26.341C10.1509 16.7802 17.9683 9 27.5733 9C32.2344 9.00146 36.6097 10.8083 39.9008 14.0867C43.1904 17.365 45.0015 21.7225 45 26.3571C44.9956 35.9194 37.1783 43.6996 27.5733 43.6996C24.6573 43.6981 21.7839 42.9704 19.2387 41.5879L10 44ZM19.6665 38.4481C22.1224 39.8992 24.4668 40.7683 27.5674 40.7698C35.5503 40.7698 42.0533 34.3035 42.0577 26.3542C42.0606 18.3887 35.5884 11.9312 27.5791 11.9283C19.5903 11.9283 13.0918 18.3946 13.0888 26.3425C13.0874 29.5873 14.0427 32.0169 15.6472 34.5587L14.1834 39.8788L19.6665 38.4481ZM36.3518 30.4798C36.2434 30.299 35.9533 30.191 35.5166 29.9738C35.0814 29.7565 32.9406 28.7079 32.5406 28.5635C32.142 28.4192 31.8519 28.3463 31.5603 28.7808C31.2702 29.214 30.435 30.191 30.1815 30.4798C29.928 30.7685 29.673 30.805 29.2378 30.5877C28.8026 30.3704 27.3989 29.914 25.7358 28.4367C24.4419 27.2875 23.5672 25.8685 23.3137 25.434C23.0602 25.0008 23.2873 24.766 23.5041 24.5502C23.7005 24.3563 23.9393 24.0442 24.1577 23.7904C24.3789 23.5396 24.4507 23.3588 24.5973 23.0685C24.7423 22.7798 24.6705 22.526 24.5606 22.3088C24.4507 22.0929 23.5803 19.9594 23.2184 19.0917C22.8638 18.2473 22.5048 18.361 22.2381 18.3479L21.4029 18.3333C21.1128 18.3333 20.641 18.4413 20.2424 18.8758C19.8438 19.3104 18.7185 20.3575 18.7185 22.491C18.7185 24.6246 20.279 26.6852 20.4959 26.974C20.7142 27.2627 23.5657 31.6406 27.9337 33.5175C28.9726 33.9638 29.7844 34.2306 30.4159 34.4304C31.4592 34.76 32.4087 34.7133 33.159 34.6025C33.9956 34.4785 35.7349 33.554 36.0983 32.5419C36.4617 31.5283 36.4617 30.6606 36.3518 30.4798Z" stroke="white" stroke-width="1.5"/>
</svg>
